<?xml version="1.0" encoding="UTF-8" standalone="no"?>
<!DOCTYPE svg PUBLIC "-//W3C//DTD SVG 1.1//EN" "http://www.w3.org/Graphics/SVG/1.1/DTD/svg11.dtd">
<svg width="100%" height="100%" viewBox="0 0 595 596" version="1.1" xmlns="http://www.w3.org/2000/svg" xmlns:xlink="http://www.w3.org/1999/xlink" xml:space="preserve" xmlns:serif="http://www.serif.com/" style="fill-rule:evenodd;clip-rule:evenodd;stroke-linejoin:round;stroke-miterlimit:2;">
    <g id="Artboard1" transform="matrix(1,0,0,1,-229.629,-239.614)">
        <rect x="229.629" y="239.614" width="594.907" height="595.688" style="fill:none;"/>
        <clipPath id="_clip1">
            <rect x="229.629" y="239.614" width="594.907" height="595.688"/>
        </clipPath>
        <g clip-path="url(#_clip1)">
            <g transform="matrix(1,0,0,1,-37.9271,-13.4059)">
                <rect x="265.688" y="253.397" width="597.613" height="597.613" style="fill:rgb(252,155,119);"/>
            </g>
            <g transform="matrix(0.647146,0,0,0.76221,165.699,126.894)">
                <path d="M227.132,239.377C493.367,248.748 584.685,493.477 227.132,517.53" style="fill:rgb(23,21,69);"/>
            </g>
            <g transform="matrix(0.647146,0,0,0.76221,165.699,383.65)">
                <path d="M227.132,239.377C493.367,248.748 584.685,493.477 227.132,517.53" style="fill:rgb(23,21,69);"/>
            </g>
            <g transform="matrix(1.13898,0,0,1.02977,-43.44,-4.6226)">
                <path d="M426.209,545.422C514.584,491.961 559.834,413.819 472.476,304.273L549.588,308.479L549.588,754.323L475.28,754.323C529.814,655.756 510.009,587.908 426.209,545.422Z" style="fill:rgb(23,21,69);"/>
            </g>
            <g transform="matrix(1.45361,0,0,1.45361,-316.082,-230.258)">
                <path d="M668.76,372.973L668.76,508.969L727.645,508.969L727.645,374.375L668.76,372.973Z" style="fill:rgb(23,21,69);"/>
            </g>
            <g transform="matrix(1.56701,0,0,1.56701,-395.259,-30.0038)">
                <path d="M668.76,372.973L668.76,508.969L727.645,508.969L727.645,374.375L668.76,372.973Z" style="fill:rgb(23,21,69);"/>
            </g>
        </g>
    </g>
</svg>
