<svg width="91" height="91" viewBox="0 0 91 91" fill="none" xmlns="http://www.w3.org/2000/svg">
<path d="M74.6193 7.28003H16.3793C11.3561 7.28003 7.2793 11.3568 7.2793 16.38V74.62C7.2793 79.6432 11.3561 83.72 16.3793 83.72H74.6193C79.6425 83.72 83.7193 79.6432 83.7193 74.62V16.38C83.7193 11.3568 79.6425 7.28003 74.6193 7.28003ZM30.9393 36.4V70.98H20.0193V36.4H30.9393ZM20.0193 26.3354C20.0193 23.7874 22.2033 21.84 25.4793 21.84C28.7553 21.84 30.8119 23.7874 30.9393 26.3354C30.9393 28.8834 28.9009 30.94 25.4793 30.94C22.2033 30.94 20.0193 28.8834 20.0193 26.3354ZM70.9793 70.98H60.0593C60.0593 70.98 60.0593 54.1268 60.0593 52.78C60.0593 49.14 58.2393 45.5 53.6893 45.4272H53.5437C49.1393 45.4272 47.3193 49.1764 47.3193 52.78C47.3193 54.4362 47.3193 70.98 47.3193 70.98H36.3993V36.4H47.3193V41.0592C47.3193 41.0592 50.8319 36.4 57.8935 36.4C65.1189 36.4 70.9793 41.3686 70.9793 51.4332V70.98Z" fill="black"/>
</svg>
