<svg width="37" height="37" viewBox="0 0 37 37" fill="none" xmlns="http://www.w3.org/2000/svg">
<rect x="1.5" y="1.5" width="34" height="34" rx="17" fill="#FBFBFB" stroke="#610023" stroke-width="3"/>
<path fill-rule="evenodd" clip-rule="evenodd" d="M12.5449 16.5466L14.3811 11.0032H23.4695V5.59747H30.4226V30.4426H23.4695V26.3355H12.5449" fill="#242424"/>
<mask id="path-3-inside-1_216_560" fill="white">
<path fill-rule="evenodd" clip-rule="evenodd" d="M6.25977 30.2927V5.71225H15.921L18.7221 9.48461L18.893 13.3152L6.25977 22.6255"/>
</mask>
<path fill-rule="evenodd" clip-rule="evenodd" d="M6.25977 30.2927V5.71225H15.921L18.7221 9.48461L18.893 13.3152L6.25977 22.6255" fill="#56E2FD"/>
<path d="M6.25977 5.71225H5.25977V4.71225H6.25977V5.71225ZM15.921 5.71225V4.71225H16.424L16.7239 5.11609L15.921 5.71225ZM18.7221 9.48461L19.5249 8.88845L19.7074 9.13422L19.7211 9.44002L18.7221 9.48461ZM18.893 13.3152L19.892 13.2706L19.9158 13.8037L19.4863 14.1202L18.893 13.3152ZM5.25977 30.2927V5.71225H7.25977V30.2927H5.25977ZM6.25977 4.71225H15.921V6.71225H6.25977V4.71225ZM16.7239 5.11609L19.5249 8.88845L17.9192 10.0808L15.1181 6.3084L16.7239 5.11609ZM19.7211 9.44002L19.892 13.2706L17.894 13.3598L17.7231 9.52919L19.7211 9.44002ZM19.4863 14.1202L6.85303 23.4305L5.6665 21.8205L18.2998 12.5102L19.4863 14.1202Z" fill="white" mask="url(#path-3-inside-1_216_560)"/>
<mask id="path-5-inside-2_216_560" fill="white">
<path fill-rule="evenodd" clip-rule="evenodd" d="M6.26367 5.71198V30.2924L16.3273 30.1961L18.726 26.5201L18.8969 22.6895L6.26367 12.8461"/>
</mask>
<path fill-rule="evenodd" clip-rule="evenodd" d="M6.26367 5.71198V30.2924L16.3273 30.1961L18.726 26.5201L18.8969 22.6895L6.26367 12.8461" fill="#5C5AD6"/>
<path d="M6.26367 30.2924H5.26367V31.302L6.27324 31.2924L6.26367 30.2924ZM16.3273 30.1961L16.3369 31.1961L16.8722 31.1909L17.1648 30.7426L16.3273 30.1961ZM18.726 26.5201L19.5635 27.0665L19.7128 26.8377L19.725 26.5646L18.726 26.5201ZM18.8969 22.6895L19.8959 22.7341L19.919 22.2181L19.5116 21.9006L18.8969 22.6895ZM5.26367 5.71198V30.2924H7.26367V5.71198H5.26367ZM6.27324 31.2924L16.3369 31.1961L16.3177 29.1962L6.2541 29.2925L6.27324 31.2924ZM17.1648 30.7426L19.5635 27.0665L17.8885 25.9736L15.4898 29.6496L17.1648 30.7426ZM19.725 26.5646L19.8959 22.7341L17.8979 22.6449L17.727 26.4755L19.725 26.5646ZM19.5116 21.9006L6.87829 12.0573L5.64905 13.6349L18.2823 23.4783L19.5116 21.9006Z" fill="white" mask="url(#path-5-inside-2_216_560)"/>
</svg>
