<?xml version="1.0" encoding="UTF-8" standalone="no"?>
<!DOCTYPE svg PUBLIC "-//W3C//DTD SVG 1.1//EN" "http://www.w3.org/Graphics/SVG/1.1/DTD/svg11.dtd">
<svg width="100%" height="100%" viewBox="0 0 50 50" version="1.1" xmlns="http://www.w3.org/2000/svg" xmlns:xlink="http://www.w3.org/1999/xlink" xml:space="preserve" xmlns:serif="http://www.serif.com/" style="fill-rule:evenodd;clip-rule:evenodd;stroke-linejoin:round;stroke-miterlimit:2;">
    <g transform="matrix(1.14834,0,0,1,-7.25219,0)">
        <path d="M18.951,22.205L34.801,22.205L34.801,1.149L48.89,1.149L48.89,48.928L34.954,48.928L34.954,27.948L19.793,27.948" style="fill:rgb(183,58,255);"/>
    </g>
    <g transform="matrix(1.43569,0,0,1.43569,-8.28951,-10.9152)">
        <g transform="matrix(1,0,0,-1,-2.68453,50.5168)">
            <path d="M10.145,9.035L10.145,41.96L23.086,41.96L26.838,36.907L27.067,31.776L10.145,19.305" style="fill:rgb(0,241,255);"/>
        </g>
        <g transform="matrix(1,0,0,1,-2.67994,-0.47856)">
            <path d="M10.145,9.035L10.145,41.96L23.625,41.831L26.838,36.907L27.067,31.776L10.145,18.591"/>
        </g>
    </g>
</svg>
