<svg width="97" height="95" viewBox="0 0 97 95" fill="none" xmlns="http://www.w3.org/2000/svg">
<path d="M48.4992 9.5C27.0719 9.5 9.69922 26.5145 9.69922 47.5C9.69922 65.3062 22.2187 80.2053 39.0967 84.3283C38.9156 83.8153 38.7992 83.22 38.7992 82.4822V75.9873C37.2246 75.9873 34.5862 75.9873 33.9234 75.9873C31.2688 75.9873 28.9085 74.8695 27.7639 72.7922C26.4932 70.4837 26.2733 66.9528 23.124 64.7932C22.1896 64.0743 22.9009 63.2542 23.9776 63.365C25.9661 63.916 27.6151 65.2523 29.1671 67.2347C30.7127 69.2202 31.4402 69.6698 34.3275 69.6698C35.7276 69.6698 37.8228 69.5907 39.7951 69.2867C40.8556 66.6488 42.6889 64.22 44.9296 63.0737C32.0092 61.7722 25.8433 55.4768 25.8433 46.93C25.8433 43.2503 27.4438 39.691 30.163 36.6922C29.2706 33.7155 28.1486 27.645 30.5057 25.3333C36.3193 25.3333 39.8339 29.0257 40.6778 30.0232C43.5749 29.051 46.7565 28.5 50.0997 28.5C53.4495 28.5 56.644 29.051 59.5475 30.0295C60.3817 29.0383 63.8996 25.3333 69.7261 25.3333C72.0929 27.6482 70.958 33.744 70.0559 36.7143C72.7589 39.7068 74.3497 43.2567 74.3497 46.93C74.3497 55.4705 68.1935 61.7627 55.2925 63.0705C58.8427 64.885 61.4326 69.9833 61.4326 73.8245V82.4822C61.4326 82.8115 61.3582 83.049 61.3194 83.3308C76.4385 78.1407 87.2992 64.0807 87.2992 47.5C87.2992 26.5145 69.9265 9.5 48.4992 9.5Z" fill="black"/>
</svg>
