<svg width="25" height="25" viewBox="0 0 25 25" fill="none" xmlns="http://www.w3.org/2000/svg">
<path d="M12.0218 2.40454C6.71054 2.40454 2.4043 6.71078 2.4043 12.0221C2.4043 16.5287 5.50755 20.2995 9.69117 21.343C9.64629 21.2132 9.61743 21.0625 9.61743 20.8758V19.232C9.22712 19.232 8.57313 19.232 8.40883 19.232C7.75083 19.232 7.16577 18.9491 6.88205 18.4233C6.56708 17.839 6.51258 16.9454 5.73196 16.3988C5.50034 16.2169 5.67666 16.0093 5.94354 16.0374C6.43644 16.1768 6.84519 16.515 7.22989 17.0168C7.61298 17.5193 7.79331 17.6331 8.50902 17.6331C8.85605 17.6331 9.37539 17.613 9.86428 17.5361C10.1272 16.8685 10.5816 16.2538 11.137 15.9636C7.93437 15.6342 6.40599 14.0409 6.40599 11.8778C6.40599 10.9465 6.80271 10.0457 7.47674 9.28667C7.25553 8.5333 6.97743 6.9969 7.56169 6.41184C9.00272 6.41184 9.8739 7.34634 10.0831 7.5988C10.8012 7.35275 11.5898 7.2133 12.4185 7.2133C13.2488 7.2133 14.0407 7.35275 14.7604 7.6004C14.9672 7.34955 15.8392 6.41184 17.2834 6.41184C17.8701 6.99771 17.5888 8.54052 17.3651 9.29228C18.0352 10.0497 18.4295 10.9481 18.4295 11.8778C18.4295 14.0393 16.9035 15.6318 13.7057 15.9628C14.5857 16.4221 15.2277 17.7124 15.2277 18.6846V20.8758C15.2277 20.9591 15.2092 21.0192 15.1996 21.0906C18.9472 19.777 21.6393 16.2185 21.6393 12.0221C21.6393 6.71078 17.3331 2.40454 12.0218 2.40454Z" fill="#56E2FD"/>
</svg>
