<svg width="25" height="25" viewBox="0 0 25 25" fill="none" xmlns="http://www.w3.org/2000/svg">
<path d="M12.4088 3.87793C9.88653 3.87793 6.44602 3.91738 5.74798 3.97943C4.96462 4.44944 3.41395 6.22876 3.39844 6.69102V7.46662C3.39844 8.44621 4.31591 9.30717 5.14658 9.30717C6.14168 9.30717 6.97198 8.47725 6.97198 7.49843C6.97198 8.47725 7.77882 9.30717 8.77315 9.30717C9.776 9.30717 10.5516 8.47803 10.5516 7.49843C10.5516 8.47725 11.3969 9.30717 12.3997 9.30717H12.4164C13.4192 9.30717 14.2645 8.47803 14.2645 7.49843C14.2645 8.47725 15.0478 9.30717 16.0429 9.30717C17.038 9.30717 17.8456 8.47803 17.8456 7.49843C17.8456 8.47725 18.6759 9.30717 19.671 9.30717C20.5017 9.30717 21.4176 8.44621 21.4176 7.46662V6.69102C21.4021 6.22876 19.8515 4.44944 19.0681 3.97943C16.6312 3.89333 14.9311 3.87793 12.4088 3.87793ZM10.5092 9.10721C9.69246 10.5111 7.64062 10.5279 6.84019 9.1163C6.35156 9.96326 5.24553 10.2903 4.77241 10.1297C4.63435 11.6026 4.5391 19.1642 5.54196 20.4323C8.48693 21.1187 16.4144 21.1039 19.2756 20.4323C20.4352 19.2502 20.1755 11.4956 20.0452 10.1297C19.5721 10.2903 18.4659 9.96326 17.985 9.1163C17.176 10.5279 15.1244 10.5111 14.3084 9.10721C14.0564 9.56482 13.4691 10.1676 12.4088 10.1676C11.6309 10.1979 10.8977 9.77811 10.5092 9.10721ZM8.85646 10.8584C9.47695 10.8584 10.0433 10.8587 10.7258 11.6188C11.8504 11.5025 12.9672 11.5025 14.0918 11.6188C14.7821 10.8665 15.3407 10.866 15.9611 10.866C17.9622 10.866 18.4437 13.8209 19.1651 16.3649C19.8166 18.7305 18.9464 18.7932 17.8683 18.7932C16.2628 18.7311 15.3719 17.5679 15.3719 16.3967C13.8749 16.6449 11.4856 16.738 9.44574 16.3967C9.44574 17.5679 8.55476 18.7311 6.94926 18.7932C5.87117 18.7932 5.00103 18.7305 5.65254 16.3649C6.37386 13.8054 6.8554 10.866 8.85646 10.866V10.8584ZM12.4088 13.0898C12.4088 13.0898 11.0949 14.3016 10.8576 14.7243L11.7165 14.6925V15.4423C11.7165 15.4873 12.3514 15.4484 12.4088 15.4484C12.7555 15.4616 13.1011 15.4741 13.1011 15.4423V14.6925L13.96 14.7243C13.7227 14.3008 12.4088 13.0898 12.4088 13.0898Z" fill="#56E2FD"/>
</svg>
