<svg width="22" height="22" viewBox="0 0 22 22" fill="none" xmlns="http://www.w3.org/2000/svg">
<path d="M17.4833 1.70532H3.83896C2.66213 1.70532 1.70703 2.66043 1.70703 3.83725V17.4816C1.70703 18.6584 2.66213 19.6135 3.83896 19.6135H17.4833C18.6601 19.6135 19.6152 18.6584 19.6152 17.4816V3.83725C19.6152 2.66043 18.6601 1.70532 17.4833 1.70532ZM7.25004 8.52749V16.6288H4.69173V8.52749H7.25004ZM4.69173 6.16958C4.69173 5.57264 5.20339 5.11641 5.97089 5.11641C6.73838 5.11641 7.2202 5.57264 7.25004 6.16958C7.25004 6.76652 6.77249 7.24833 5.97089 7.24833C5.20339 7.24833 4.69173 6.76652 4.69173 6.16958ZM16.6305 16.6288H14.0722C14.0722 16.6288 14.0722 12.6805 14.0722 12.365C14.0722 11.5122 13.6458 10.6594 12.5799 10.6424H12.5458C11.5139 10.6424 11.0875 11.5207 11.0875 12.365C11.0875 12.753 11.0875 16.6288 11.0875 16.6288H8.5292V8.52749H11.0875V9.61904C11.0875 9.61904 11.9104 8.52749 13.5648 8.52749C15.2576 8.52749 16.6305 9.69152 16.6305 12.0494V16.6288Z" fill="#56E2FD"/>
</svg>
